<svg id="Layer_1" data-name="Layer 1" xmlns="http://www.w3.org/2000/svg" viewBox="0 0 730.45 636.05"><defs><style>.cls-1{fill:#8e8bc9;}.cls-2{fill:#052055;}</style></defs><title>Logo-WPFeedback-1.2-icon</title><path class="cls-1" d="M288.13,655.41c-52.36-11.77-100.51-31.83-141-59.21-34.45-23.3-61.69-50.76-81-81.61-20.85-33.34-31.42-69-31.42-106s10.57-72.68,31.42-106c19.28-30.85,46.52-58.31,81-81.61,49.94-33.79,111.58-56.42,178.39-66.08l-1.39,74.9C273,238.59,226.39,256.41,188.52,282c-51.56,34.88-80,79.81-80,126.52s28.39,91.64,80,126.52c28.35,19.19,61.63,34,98,43.95a114.38,114.38,0,0,0,1.6,76.38Zm425.68-67.64c-4-8.76-9.85-21.56-13.46-30.92,42.52-43.33,64.88-94.27,64.88-148.29,0-37-10.57-72.68-31.42-106-19.28-30.85-46.52-58.31-81-81.61-30-20.28-64.18-36.55-101.18-48.4l-9.24,74.76A315,315,0,0,1,611.48,282c51.56,34.88,79.95,79.81,79.95,126.52,0,47.8-29.15,84-53.61,106-22.93,20.62-12.28,51.8-8.78,62,3.68,10.76,9.05,22.94,14.56,35.06l-10.39-5.18c-41-20.53-68.49-33.61-91.29-33.61a52.15,52.15,0,0,0-15.67,2.32q-10.71,3.33-21.7,6.07a114.74,114.74,0,0,1-3.16,76.35q21.42-4.33,42.12-10.53c11.53,2.8,39.48,16.79,56.67,25.39,38.23,19.14,67,33.53,90.88,33.53a48.6,48.6,0,0,0,24.7-6.37c14.4-8.23,22.38-23.31,21.88-41.38-.21-7.48-1.82-15.58-5-25.48C728.1,619,720.83,603.14,713.81,587.77Z" transform="translate(-34.77 -69.98)"/><circle class="cls-2" cx="360.41" cy="544.97" r="84.9"/><path class="cls-2" d="M518.87,106c-4.16-32-24-30.93-84.24-35.44C388,67,363.59,80,359.07,122.22c-3.58,33.37-17,336-9.13,351.66s101.13,27.38,113.22,14.74S523.38,140.63,518.87,106Z" transform="translate(-34.77 -69.98)"/></svg>