<svg height="18" viewBox="0 0 10 18" width="10" xmlns="http://www.w3.org/2000/svg"><path d="m14.6234294 1.0037452-2.3985453-.0037452c-2.6946834 0-4.43610617 1.73870978-4.43610617 4.42982429v2.04244561h-2.41163001c-.20839347 0-.37714792.16441435-.37714792.36721701v2.95927089c0 .2028027.16894687.3670298.37714792.3670298h2.41163001v7.4671827c0 .2028026.16875445.3670297.37714791.3670297h3.14649116c.2083935 0 .3771479-.1644143.3771479-.3670297v-7.4671827h2.819758c.2083934 0 .3771479-.1642271.3771479-.3670298l.0011545-2.95927089c0-.09737524-.0398314-.19063076-.1104504-.25954246-.0706191-.06891171-.1668303-.10767455-.2668899-.10767455h-2.8207201v-1.73140663c0-.83218377.2037754-1.25464249 1.3177087-1.25464249l1.6157709-.00056178c.2082011 0 .3769555-.16441434.3769555-.36702974v-2.74785432c0-.20242813-.168562-.36665522-.3765706-.36702974z" fill="#bcbfc2" fill-rule="evenodd" transform="translate(-5 -1)"/></svg>