<?xml version="1.0" encoding="UTF-8"?>
<svg width="13px" height="13px" viewBox="0 0 13 13" version="1.1" xmlns="http://www.w3.org/2000/svg" xmlns:xlink="http://www.w3.org/1999/xlink">
    <title>Icon/Heart</title>
    <g id="DESKTOP-Mock-ups" stroke="none" stroke-width="1" fill="none" fill-rule="evenodd">
        <g id="Home-Page---3rd-draft---APPROVED" transform="translate(-227.000000, -1386.000000)" fill="#BCBFC2">
            <g id="TOP-STORIES" transform="translate(150.000000, 1075.000000)">
                <g id="Icon/Heart" transform="translate(76.000000, 310.000000)">
                    <path d="M12.8390565,2.96027723 C12.1700649,2.21185212 11.280723,1.8 10.334586,1.8 C9.38831433,1.8 8.59422709,2.21185212 7.925,2.96027723 L7.49997687,3.63915789 L7.075,2.96027723 C6.40597479,2.21185212 5.61163941,1.8 4.66556965,1.8 C3.71953355,1.8 2.82982153,2.21185212 2.16086361,2.96027723 C0.77971213,4.50549429 0.77971213,7.01962903 2.16086361,8.56424386 L7.10991404,13.3206851 C7.19083365,13.411547 7.29157101,13.4671783 7.39681698,13.4885952 C7.43211206,13.4963866 7.46760902,13.5 7.50317328,13.5 C7.64317599,13.5 7.78341422,13.440266 7.8900397,13.3206851 L12.8390901,8.56424386 C14.2203089,7.01962903 14.2203089,4.50549429 12.8390565,2.96027723 Z" id="Heart"></path>
                </g>
            </g>
        </g>
    </g>
</svg>