<svg height="40" viewBox="0 0 40 40" width="40" xmlns="http://www.w3.org/2000/svg"><g fill="none" fill-rule="evenodd"><circle cx="20" cy="20" r="19.5" stroke="#d9dadb"/><path d="m17.118742 3.94703631c-.8919888-.99790015-2.077778-1.54703631-3.3392941-1.54703631-1.2616955 0-2.3204784.54913616-3.2127812 1.54703631l-.56669754.90517422-.56663583-.90517422c-.89203362-.99790015-1.95114745-1.54703631-3.21257379-1.54703631-1.26138148 0-2.44766417.54913616-3.33960806 1.54703631-1.84153531 2.06028941-1.84153531 5.41246907 0 7.47195549l6.5987339 6.3419217c.10789283.1211492.24220929.1953242.38253725.2238801.04706012.0103885.0943894.0152064.14180837.0152064.1866703 0 .3736546-.0796453.5158219-.2390865l6.5987339-6.3419217c1.8416251-2.05948642 1.8416251-5.41166608-.0000448-7.47195549z" fill="#bcbfc2" transform="translate(10 10)"/></g></svg>