<svg height="18" viewBox="0 0 14 18" width="14" xmlns="http://www.w3.org/2000/svg"><path d="m16.6666562 7h-2v-1.33334375c0-2.57321875-2.0934062-4.66665625-4.6666562-4.66665625s-4.66665625 2.0934375-4.66665625 4.66665625v1.33334375h-2c-.18425 0-.33334375.14909375-.33334375.33334375v10.33334375c0 .7353438.59796875 1.3333125 1.33334375 1.3333125h11.33334375c.7353437 0 1.3333125-.5979687 1.3333125-1.3333437v-10.33331255c0-.18425-.1490938-.33334375-.3333438-.33334375zm-5.3941763 8.5241271c.0132679.120937-.0253006.2423159-.1058242.3331593-.0805236.0908031-.1959102.1427136-.3166756.1427136h-1.70000002c-.12076546 0-.23615206-.0519105-.31667565-.1427136-.08052359-.0908032-.11913188-.2121821-.10582418-.3331593l.2681065-2.4311945c-.43536925-.3193378-.69558675-.8245008-.69558675-1.3786411 0-.9454378.7624042-1.7142915 1.7-1.7142915s1.7.7688135 1.7 1.7142915c0 .5541403-.2602175 1.0593033-.6955868 1.3786411zm-3.93913615-8.5241271v-1.33334375c0-1.470375 1.19628125-2.66665625 2.66665625-2.66665625s2.6666562 1.19628125 2.6666562 2.66665625v1.33334375z" fill="#bcbfc2" fill-rule="evenodd" transform="translate(-3 -1)"/></svg>