<svg height="18" viewBox="0 0 16 18" width="16" xmlns="http://www.w3.org/2000/svg"><path d="m18 16.6315789c-1.6325061 1.5789474-4.2991728 2.3684211-8 2.3684211-3.70082721 0-6.36749387-.7894737-8-2.3684211 0-3.2834995 1.90590793-5.6484164 4.70588235-6.6315789.89470588.4168586 1.88867188 1 3.29411765 1 1.4054458 0 2.331129-.607441 3.2941176-1 2.7633825.9965457 4.7058824 3.3748372 4.7058824 6.6315789zm-8-7.6315789c-2.209139 0-4-1.790861-4-4s1.790861-4 4-4 4 1.790861 4 4-1.790861 4-4 4z" fill="#bcbfc2" fill-rule="evenodd" transform="translate(-2 -1)"/></svg>