<?xml version="1.0" encoding="UTF-8"?>
<svg width="36px" height="36px" viewBox="0 0 36 36" version="1.1" xmlns="http://www.w3.org/2000/svg" xmlns:xlink="http://www.w3.org/1999/xlink">
    <title>Quotes</title>
    <g id="DESKTOP-Mock-ups" stroke="none" stroke-width="1" fill="none" fill-rule="evenodd">
        <g id="Events-Page---1st-draft" transform="translate(-732.000000, -1639.000000)" fill="#20AADB">
            <g id="TESTIMONIALS" transform="translate(150.000000, 1600.000000)">
                <g id="Icon/Quotes" transform="translate(582.000000, 39.000000)">
                    <path d="M33.1714286,0 L33.1714286,8.22857143 C31.294813,8.22857143 27.9889586,8.38450901 27.9887701,15.8968218 L27.9887701,15.8968218 L27.9887701,19.8 L36,19.8 L36,36 L19.8,36 L19.8,15.8968218 C19.8,9.9906288 21.328462,5.60467901 24.6678503,2.86059942 C26.9779079,0.96242345 29.7146341,0 33.1714286,0 L33.1714286,0 Z M13.3714286,0 L13.3714286,8.22857143 C11.494813,8.22857143 8.18895859,8.38450901 8.18877014,15.8968218 L8.18877014,15.8968218 L8.18877014,19.8 L16.2,19.8 L16.2,36 L0,36 L0,15.8968218 C0,9.9906288 1.52846202,5.60467901 4.86785028,2.86059942 C7.17790792,0.96242345 9.91463405,0 13.3714286,0 L13.3714286,0 Z" id="Quotes"></path>
                </g>
            </g>
        </g>
    </g>
</svg>