<svg height="16" viewBox="0 0 18 16" width="18" xmlns="http://www.w3.org/2000/svg"><path d="m18.9789801 4.36286181c-.0258098-.03070539-.068396-.04112662-.1047141-.02437822-.5381343.24099082-1.1042907.41424368-1.6874078.516595.6190665-.47007167 1.0803245-1.12102603 1.3168528-1.86744625.0114301-.03572991-.0003687-.07480951-.0293125-.09807117-.0291282-.02326166-.0695021-.02623915-.1013957-.00707154-.6972333.41740726-1.4523543.71162077-2.2454526.87482459-.7027639-.73618509-1.6840894-1.15731422-2.699705-1.15731422-2.0655214 0-3.7457394 1.69605432-3.7457394 3.78085754 0 .25215642.0241506.50189362.07208309.74437319-2.86083196-.17827738-5.53583336-1.56467245-7.35468682-3.81658745-.01861993-.02307557-.04682635-.03591601-.07632327-.03293851-.02931256.00223312-.05549107.01898151-.07023952.04447629-.33184029.57465611-.50716257 1.23212373-.50716257 1.90094304 0 1.15917516.52172667 2.24298253 1.41013685 2.95813907-.45738653-.0554558-.90408042-.20079467-1.30689765-.42652584-.02710029-.01544574-.06083739-.01525965-.08793768.00055828-.02710029.01563184-.04424537.04466239-.04498279.07629825l-.00036871.04838426c0 1.66479065 1.08677693 3.12655348 2.63296829 3.61188478-.40724177.0662493-.82978506.061783-1.24513848-.0182371-.03060305-.0057689-.06268095.0048384-.0836975.0286584-.02083219.0238199-.02783771.0571306-.01825121.0872777.46365462 1.4608324 1.75193234 2.485276 3.25148171 2.612936-1.25085351.9250698-2.72938633 1.4124482-4.29161665 1.4124482-.28777926 0-.57758645-.0173067-.86149424-.0509896-.04055826-.0046523-.08074781.0197259-.09475884.0589916-.01401103.0396378.00092178.083928.03594936.1064453 1.69054189 1.0944147 3.64526552 1.6726066 5.65308359 1.6726066 6.56767224 0 10.49223674-5.3851679 10.49223674-10.59131397 0-.14496668-.0027654-.28918898-.0084804-.4330391.708479-.52310827 1.3166685-1.1634553 1.8070547-1.90466491.0219383-.03312461.0195417-.07722872-.0060837-.10812021z" fill="#bcbfc2" fill-rule="evenodd" transform="translate(-1 -2)"/></svg>