<svg height="16" viewBox="0 0 16 16" width="16" xmlns="http://www.w3.org/2000/svg"><path d="m10 8.59823895 6.3079247-6.30792473c.3870857-.38708563 1.0146755-.38708563 1.4017611 0 .3870856.38708562.3870856 1.01467542 0 1.40176105l-6.3079247 6.30792473 6.3079247 6.3079247c.3870856.3870857.3870856 1.0146755 0 1.4017611s-1.0146754.3870856-1.4017611 0l-6.3079247-6.3079247-6.30792473 6.3079247c-.38708563.3870856-1.01467543.3870856-1.40176105 0-.38708563-.3870856-.38708563-1.0146754 0-1.4017611l6.30792473-6.3079247-6.30792473-6.30792473c-.38708563-.38708563-.38708563-1.01467543 0-1.40176105.38708562-.38708563 1.01467542-.38708563 1.40176105 0z" fill="#bcbfc2" fill-rule="evenodd" transform="translate(-2 -2)"/></svg>